<svg width="512" height="512" viewBox="0 0 512 512" fill="none" xmlns="http://www.w3.org/2000/svg">
  <!-- Background gradient -->
  <rect width="512" height="512" rx="128" fill="url(#gradient1)"/>

  <!-- Definitions -->
  <defs>
    <linearGradient id="gradient1" x1="0" y1="0" x2="512" y2="512" gradientUnits="userSpaceOnUse">
      <stop offset="0%" stop-color="#3b82f6"/>
      <stop offset="100%" stop-color="#8b5cf6"/>
    </linearGradient>
    <linearGradient id="gradient2" x1="0" y1="0" x2="1" y2="1">
      <stop offset="0%" stop-color="#60a5fa"/>
      <stop offset="100%" stop-color="#a78bfa"/>
    </linearGradient>
  </defs>

  <!-- Download arrow -->
  <g transform="translate(256, 256)">
    <!-- Arrow shaft -->
    <rect x="-30" y="-140" width="60" height="180" rx="30" fill="white"/>

    <!-- Arrow head -->
    <path d="M -120 40 L 0 160 L 120 40 L 80 40 L 80 -20 L -80 -20 L -80 40 Z" fill="white"/>

    <!-- Horizontal line at bottom -->
    <rect x="-140" y="180" width="280" height="40" rx="20" fill="white"/>
  </g>

  <!-- Decorative circles (representing peers/network) -->
  <circle cx="100" cy="100" r="16" fill="white" opacity="0.3"/>
  <circle cx="412" cy="100" r="16" fill="white" opacity="0.3"/>
  <circle cx="100" cy="412" r="16" fill="white" opacity="0.3"/>
  <circle cx="412" cy="412" r="16" fill="white" opacity="0.3"/>

  <!-- Connection lines -->
  <line x1="100" y1="100" x2="256" y2="150" stroke="white" stroke-width="4" opacity="0.2"/>
  <line x1="412" y1="100" x2="256" y2="150" stroke="white" stroke-width="4" opacity="0.2"/>
  <line x1="100" y1="412" x2="256" y2="350" stroke="white" stroke-width="4" opacity="0.2"/>
  <line x1="412" y1="412" x2="256" y2="350" stroke="white" stroke-width="4" opacity="0.2"/>
</svg>
