<svg width="256" height="256" viewBox="0 0 256 256" xmlns="http://www.w3.org/2000/svg">
  <circle cx="128" cy="128" r="120" fill="#10b981" opacity="0.1"/>
  <circle cx="128" cy="128" r="120" fill="none" stroke="#10b981" stroke-width="4"/>
  <g transform="translate(128, 128)">
    <path d="M -60 -30 L -60 30 A 25 25 0 0 0 -35 55 L -10 55 L -10 30 L -35 30 L -35 0 L -10 0 L -10 -25 L -35 -25 A 25 25 0 0 0 -60 -30 Z" fill="#10b981"/>
    <path d="M 10 -30 L 10 30 A 25 25 0 0 0 35 55 L 60 55 L 60 30 L 35 30 L 35 0 L 60 0 L 60 -25 L 35 -25 A 25 25 0 0 0 10 -30 Z" fill="#10b981"/>
    <path d="M -5 -40 L 5 -40 L 5 10 L 15 10 L 0 30 L -15 10 L -5 10 Z" fill="#059669" opacity="0.6"/>
  </g>
  <circle cx="60" cy="60" r="6" fill="#10b981" opacity="0.4"/>
  <circle cx="196" cy="60" r="6" fill="#10b981" opacity="0.4"/>
  <circle cx="60" cy="196" r="6" fill="#10b981" opacity="0.4"/>
  <circle cx="196" cy="196" r="6" fill="#10b981" opacity="0.4"/>
</svg>
